<svg xmlns="http://www.w3.org/2000/svg">
    <symbol
        id="A"
        viewBox="0 0 110 135"
        fill-rule="evenodd"
        clip-rule="evenodd"
        stroke-linecap="round"
        stroke-linejoin="round"
        stroke-miterlimit="1.5"
        xmlns="http://www.w3.org/2000/svg"
    >
        <circle cx="54.693" cy="80.029" r="52.136" fill="none" stroke="#000" stroke-width="4.94" />
        <circle cx="54.693" cy="6.269" r="6.104" />
    </symbol>
    <symbol
        id="B"
        viewBox="0 0 84 110"
        fill-rule="evenodd"
        clip-rule="evenodd"
        stroke-linecap="round"
        stroke-linejoin="round"
        stroke-miterlimit="1.5"
        xmlns="http://www.w3.org/2000/svg"
    >
        <path
            d="M79.476 90.7c-5.627 9.72-16.139 16.264-28.168 16.264-17.951 0-32.524-14.573-32.524-32.524V35.217c0-17.951 14.573-32.524 32.524-32.524 13.172 0 24.526 7.847 29.637 19.118"
            fill="none"
            stroke="#000"
            stroke-width="4.94"
        />
        <circle cx="49.865" cy="54.829" r="31.081" fill="none" stroke="#000" stroke-width="4.94" />
        <circle cx="4.966" cy="54.829" r="4.877" />
    </symbol>
    <symbol
        id="C"
        viewBox="0 0 66 135"
        fill-rule="evenodd"
        clip-rule="evenodd"
        stroke-linecap="round"
        stroke-linejoin="round"
        stroke-miterlimit="1.5"
        xmlns="http://www.w3.org/2000/svg"
    >
        <path
            d="M14.296 111.827l7.502 20.337L2.565 80.029l19.233-52.136-7.502 20.337H50.78l-7.502-20.337 19.233 52.136-19.233 52.135 7.502-20.337H14.296z"
            fill="none"
            stroke="#000"
            stroke-width="4.94"
        />
        <circle cx="32.538" cy="6.269" r="6.104" />
    </symbol>
    <symbol
        id="D"
        viewBox="0 0 83 110"
        fill-rule="evenodd"
        clip-rule="evenodd"
        stroke-linecap="round"
        stroke-linejoin="round"
        stroke-miterlimit="1.5"
        xmlns="http://www.w3.org/2000/svg"
    >
        <g fill="none" stroke="#000" stroke-width="4.94">
            <path
                d="M2.64 54.653h38.693V2.517H2.64M80.026 2.517H41.333v52.136h38.693M2.64 106.789h38.693V54.653H2.64"
            />
            <path d="M80.026 54.653H41.333v52.136h38.693" />
        </g>
    </symbol>
    <symbol
        id="E"
        viewBox="0 0 122 113"
        fill-rule="evenodd"
        clip-rule="evenodd"
        stroke-linecap="round"
        stroke-linejoin="round"
        stroke-miterlimit="1.5"
        xmlns="http://www.w3.org/2000/svg"
    >
        <g fill="none" stroke="#000" stroke-width="4.94">
            <circle cx="54.571" cy="58.341" r="51.983" />
            <path
                d="M119.436 28.463c-7.11 0-12.882-5.772-12.882-12.882 0-7.109 5.772-12.881 12.882-12.881"
            />
        </g>
    </symbol>
    <symbol
        id="F"
        viewBox="0 0 80 110"
        fill-rule="evenodd"
        clip-rule="evenodd"
        stroke-linecap="round"
        stroke-linejoin="round"
        stroke-miterlimit="1.5"
        xmlns="http://www.w3.org/2000/svg"
    >
        <g fill="none" stroke="#000" stroke-width="4.94">
            <g xmlns:serif="http://www.serif.com/">
                <path
                    d="M59.265 37.349c-9.563 0-17.328-7.765-17.328-17.328 0-9.564 7.765-17.328 17.328-17.328 9.564 0 17.328 7.764 17.328 17.328"
                />
                <circle cx="59.265" cy="54.677" r="17.328" />
                <path
                    d="M76.593 89.333c0 9.563-7.764 17.328-17.328 17.328-9.563 0-17.328-7.765-17.328-17.328 0-9.564 7.765-17.328 17.328-17.328"
                />
            </g>
            <g>
                <path
                    d="M2.681 106.661c11.596 0 21.011-9.415 21.011-21.012V23.704c0-11.596-9.415-21.011-21.011-21.011M32.819 37.349H2.681M32.819 72.005H2.681"
                />
            </g>
        </g>
    </symbol>
    <symbol
        id="G"
        viewBox="0 0 80 109"
        fill-rule="evenodd"
        clip-rule="evenodd"
        stroke-linecap="round"
        stroke-linejoin="round"
        stroke-miterlimit="1.5"
        xmlns="http://www.w3.org/2000/svg"
    >
        <path
            d="M59.356 69.162c9.593 0 17.38-7.788 17.38-17.38 0-9.592-7.787-17.38-17.38-17.38H48.182h11.174V2.56"
            fill="none"
            stroke="#000"
            stroke-width="4.94"
        />
        <circle cx="57.265" cy="86.542" r="17.38" fill="none" stroke="#000" stroke-width="4.94" />
        <path
            d="M39.885 88.443c0 9.593-7.788 17.38-17.38 17.38-9.592 0-17.38-7.787-17.38-17.38"
            fill="none"
            stroke="#000"
            stroke-width="4.94"
        />
        <circle cx="5.125" cy="35.861" r="4.877" />
        <circle cx="4.887" cy="4.936" r="4.877" />
    </symbol>
    <symbol
        id="H"
        viewBox="0 0 67 107"
        fill-rule="evenodd"
        clip-rule="evenodd"
        stroke-linecap="round"
        stroke-linejoin="round"
        stroke-miterlimit="1.5"
        xmlns="http://www.w3.org/2000/svg"
    >
        <g fill="none" stroke="#000" stroke-width="4.94">
            <path
                d="M22.026 52.975H2.536V2.527h61.609v50.448H46.27M46.27 52.975h17.875v50.448H2.536V52.975h19.49"
            />
        </g>
    </symbol>
    <symbol
        id="I"
        viewBox="0 0 75 107"
        fill-rule="evenodd"
        clip-rule="evenodd"
        stroke-linecap="round"
        stroke-linejoin="round"
        stroke-miterlimit="1.5"
        xmlns="http://www.w3.org/2000/svg"
    >
        <path
            d="M37.172 89.044v14.379H2.707L37.172 2.527l34.464 100.896"
            fill="none"
            stroke="#000"
            stroke-width="4.94"
        />
    </symbol>
    <symbol
        id="J"
        viewBox="0 0 90 112"
        fill-rule="evenodd"
        clip-rule="evenodd"
        stroke-linecap="round"
        stroke-linejoin="round"
        stroke-miterlimit="1.5"
        xmlns="http://www.w3.org/2000/svg"
    >
        <path
            d="M71.76 12.321L37.2 108.463 2.64 12.321M71.76 12.321h15.311"
            fill="none"
            stroke="#000"
            stroke-width="4.94"
        />
        <circle cx="37.2" cy="7.444" r="4.877" />
        <path fill="none" stroke="#000" stroke-width="4.94" d="M87.071 2.567h.19v105.897h-.19z" />
    </symbol>
    <symbol
        id="K"
        viewBox="0 0 50 106"
        fill-rule="evenodd"
        clip-rule="evenodd"
        stroke-linejoin="round"
        stroke-miterlimit="2"
        xmlns="http://www.w3.org/2000/svg"
    >
        <g fill-rule="nonzero">
            <path
                d="M.047 105.823l20.334-52.948h7.548L49.6 105.823h-7.982l-6.176-16.036h-22.14l-5.815 16.036H.047zm15.277-21.742h17.951l-5.526-14.664c-1.686-4.455-2.938-8.115-3.757-10.98a67.478 67.478 0 0 1-2.853 10.113l-5.815 15.531z"
            />
            <path
                d="M.047.092L20.381 53.04h7.548L49.6.092h-7.982l-6.176 16.036h-22.14L7.487.092H.047zm15.277 21.742h17.951l-5.526 14.664c-1.686 4.455-2.938 8.115-3.757 10.98a67.478 67.478 0 0 0-2.853-10.113l-5.815-15.531z"
            />
        </g>
    </symbol>
    <symbol
        id="L"
        viewBox="0 0 67 112"
        fill-rule="evenodd"
        clip-rule="evenodd"
        stroke-linecap="round"
        stroke-linejoin="round"
        stroke-miterlimit="1.5"
        xmlns="http://www.w3.org/2000/svg"
    >
        <g fill="none" stroke="#000" stroke-width="4.94">
            <path
                d="M64.203 108.463V86.265c0-16.971-13.779-30.75-30.751-30.75-16.971 0-30.75 13.779-30.75 30.75v22.198M64.203 2.567v22.198c0 16.971-13.779 30.75-30.751 30.75-16.971 0-30.75-13.779-30.75-30.75V2.567"
            />
        </g>
    </symbol>
    <symbol
        id="M"
        viewBox="0 0 45 118"
        fill-rule="evenodd"
        clip-rule="evenodd"
        stroke-linecap="round"
        stroke-linejoin="round"
        stroke-miterlimit="1.5"
        xmlns="http://www.w3.org/2000/svg"
    >
        <g fill="none" stroke="#000" stroke-width="4.94">
            <path d="M21.352 23.476h.951v91.271h-.951z" />
            <path d="M2.594 39.401H42.01v.238H2.594zM2.594 100.486H42.01v.238H2.594z" />
            <circle cx="21.827" cy="8.473" r="5.971" />
        </g>
    </symbol>
    <symbol
        id="N"
        viewBox="0 0 45 97"
        fill-rule="evenodd"
        clip-rule="evenodd"
        stroke-linecap="round"
        stroke-linejoin="round"
        stroke-miterlimit="1.5"
        xmlns="http://www.w3.org/2000/svg"
    >
        <g fill="none" stroke="#000" stroke-width="4.94">
            <path d="M21.417 2.675h.951v91.271h-.951z" />
            <path d="M2.66 18.6h19.708v.119H2.66zM21.893 79.684h20.183v.122H21.893z" />
        </g>
    </symbol>
    <symbol
        id="O"
        viewBox="0 0 77 97"
        fill-rule="evenodd"
        clip-rule="evenodd"
        stroke-linecap="round"
        stroke-linejoin="round"
        stroke-miterlimit="1.5"
        xmlns="http://www.w3.org/2000/svg"
    >
        <path
            d="M30.068 93.946L48.17 48.31l18.103 45.636M66.273 2.674L48.17 48.31 30.068 2.674M2.534 30.208L48.17 48.31 2.534 66.412"
            fill="none"
            stroke="#000"
            stroke-width="4.94"
        />
        <circle cx="71.15" cy="48.31" r="4.877" />
    </symbol>
    <symbol
        id="P"
        viewBox="0 0 34 97"
        fill-rule="evenodd"
        clip-rule="evenodd"
        stroke-linecap="round"
        stroke-linejoin="round"
        stroke-miterlimit="1.5"
        xmlns="http://www.w3.org/2000/svg"
    >
        <path d="M2.674 2.674h28.599v91.272H2.674" fill="none" stroke="#000" stroke-width="4.94" />
    </symbol>
    <symbol
        id="Q"
        viewBox="0 0 53 108"
        fill-rule="evenodd"
        clip-rule="evenodd"
        stroke-linecap="round"
        stroke-linejoin="round"
        stroke-miterlimit="1.5"
        xmlns="http://www.w3.org/2000/svg"
    >
        <path
            d="M4.97 104.692L50.291 53.59 4.97 2.488"
            fill="none"
            stroke="#000"
            stroke-width="4.94"
        />
        <circle cx="4.97" cy="53.59" r="4.877" />
    </symbol>
    <symbol
        id="R"
        viewBox="0 0 72 108"
        fill-rule="evenodd"
        clip-rule="evenodd"
        stroke-linecap="round"
        stroke-linejoin="round"
        stroke-miterlimit="1.5"
        xmlns="http://www.w3.org/2000/svg"
    >
        <path
            d="M2.615 2.488L11.324 53.5l-8.709 51.012M68.689 83.681H42.841c-11.596 0-21.011 9.415-21.011 21.011M68.665 23.499H42.817c-11.596 0-21.011-9.415-21.011-21.011"
            fill="none"
            stroke="#000"
            stroke-width="4.94"
        />
        <path fill="none" stroke="#000" stroke-width="4.94" d="M68.665 2.488h.024v102.204h-.024z" />
        <circle cx="34.929" cy="53.5" r="4.877" />
    </symbol>
    <symbol
        id="S"
        viewBox="0 0 75 108"
        fill-rule="evenodd"
        clip-rule="evenodd"
        stroke-linecap="round"
        stroke-linejoin="round"
        stroke-miterlimit="1.5"
        xmlns="http://www.w3.org/2000/svg"
    >
        <g fill="none" stroke="#000" stroke-width="4.94">
            <path
                d="M50.946 71.716c0-10.077-8.182-18.258-18.259-18.258h-11.91c-10.078 0-18.259 8.181-18.259 18.258l.297 32.708M50.946 35.199c0 10.077-8.182 18.259-18.259 18.259h-11.91c-10.078 0-18.259-8.182-18.259-18.259l.297-32.708M72.04 2.491h.024v101.933h-.024z"
            />
        </g>
    </symbol>
    <symbol
        id="T"
        viewBox="0 0 66 108"
        fill-rule="evenodd"
        clip-rule="evenodd"
        stroke-linecap="round"
        stroke-linejoin="round"
        stroke-miterlimit="1.5"
        xmlns="http://www.w3.org/2000/svg"
    >
        <path
            d="M62.688 2.491H19.904v50.964h42.784v.005H19.904v50.964h42.784"
            fill="none"
            stroke="#000"
            stroke-width="4.94"
        />
        <circle cx="5.008" cy="53.458" r="4.877" />
    </symbol>
    <symbol
        id="U"
        viewBox="0 0 35 108"
        fill-rule="evenodd"
        clip-rule="evenodd"
        stroke-linecap="round"
        stroke-linejoin="round"
        stroke-miterlimit="1.5"
        xmlns="http://www.w3.org/2000/svg"
    >
        <path
            d="M17.241 28.017l14.682 25.441-14.682 25.44v25.526h-.024V78.94L2.51 53.458l14.707-25.482V2.491h.024v25.526z"
            fill="none"
            stroke="#000"
            stroke-width="4.94"
        />
    </symbol>
    <symbol
        id="V"
        viewBox="0 0 84 110"
        fill-rule="evenodd"
        clip-rule="evenodd"
        stroke-linecap="round"
        stroke-linejoin="round"
        stroke-miterlimit="1.5"
        xmlns="http://www.w3.org/2000/svg"
    >
        <path
            d="M4.17 90.529c5.628 9.72 16.14 16.264 28.169 16.264 17.95 0 32.524-14.573 32.524-32.524V35.046c0-17.951-14.574-32.524-32.524-32.524-13.172 0-24.526 7.847-29.637 19.118"
            fill="none"
            stroke="#000"
            stroke-width="4.94"
        />
        <circle cx="33.782" cy="54.658" r="31.081" fill="none" stroke="#000" stroke-width="4.94" />
        <circle cx="78.68" cy="54.658" r="4.877" />
        <path fill="none" stroke="#000" stroke-width="4.94" d="M2.678 2.522h.024v104.272h-.024z" />
    </symbol>
    <symbol
        id="W"
        viewBox="0 0 82 110"
        fill-rule="evenodd"
        clip-rule="evenodd"
        stroke-linecap="round"
        stroke-linejoin="round"
        stroke-miterlimit="1.5"
        xmlns="http://www.w3.org/2000/svg"
    >
        <path
            d="M2.578 2.522v34.76h54.964V2.522M2.578 37.282h54.964v34.76H2.578z"
            fill="none"
            stroke="#000"
            stroke-width="4.94"
        />
        <path
            d="M57.542 106.793v-34.76H2.578v34.76"
            fill="none"
            stroke="#000"
            stroke-width="4.94"
        />
        <circle cx="76.369" cy="7.399" r="4.877" />
        <circle cx="76.369" cy="36.218" r="4.877" />
    </symbol>
    <symbol
        id="X"
        viewBox="0 0 89 110"
        fill-rule="evenodd"
        clip-rule="evenodd"
        stroke-linecap="round"
        stroke-linejoin="round"
        stroke-miterlimit="1.5"
        xmlns="http://www.w3.org/2000/svg"
    >
        <g fill="none" stroke="#000" stroke-width="4.94">
            <circle cx="23.381" cy="54.658" r="20.72" />
            <circle cx="64.821" cy="54.658" r="20.72" />
            <path
                d="M2.661 2.522h.024v104.272h-.024zM44.077 2.522h.024v104.272h-.024zM85.493 2.522h.024v104.272h-.024z"
            />
        </g>
    </symbol>
    <symbol
        id="Y"
        viewBox="0 0 52 123"
        fill-rule="evenodd"
        clip-rule="evenodd"
        stroke-linecap="round"
        stroke-linejoin="round"
        stroke-miterlimit="1.5"
        xmlns="http://www.w3.org/2000/svg"
    >
        <path
            d="M48.548 41.149c0-12.708-10.317-23.025-23.026-23.025-12.708 0-23.025 10.317-23.025 23.025v55.559c0 12.708 10.317 23.026 23.025 23.026 12.709 0 23.026-10.318 23.026-23.026V41.149z"
            fill="none"
            stroke="#000"
            stroke-width="4.94"
        />
        <circle cx="25.522" cy="68.929" r="23.026" fill="none" stroke="#000" stroke-width="4.94" />
        <circle cx="25.522" cy="5.037" r="4.877" />
    </symbol>
    <symbol
        id="Z"
        viewBox="0 0 86 110"
        fill-rule="evenodd"
        clip-rule="evenodd"
        stroke-linecap="round"
        stroke-linejoin="round"
        stroke-miterlimit="1.5"
        xmlns="http://www.w3.org/2000/svg"
    >
        <g fill="none" stroke="#000" stroke-width="4.94">
            <path
                d="M2.698 106.502c11.597 0 21.012-9.414 21.012-21.011V23.546c0-11.597-9.415-21.012-21.012-21.012M36.64 54.518H2.698M70.008 70.769c-11.313 0-20.498 9.622-20.498 20.936v14.797M49.51 2.534c-.015 4.933-.031 9.866 0 14.798.004.701.036 1.402.106 2.099 1.034 10.292 9.967 18.837 20.392 18.837"
            />
            <circle cx="66.198" cy="54.518" r="16.688" />
        </g>
    </symbol>
</svg>
